<?xml version="1.0" encoding="UTF-8"?>
<svg xmlns="http://www.w3.org/2000/svg" xmlns:xlink="http://www.w3.org/1999/xlink" width="40px" height="40px" viewBox="-25 0 90 40" version="1.1">
<g id="surface1">
<path style=" stroke:none;fill-rule:nonzero;fill:rgb(78.823529%,45.882353%,95.686275%);fill-opacity:1;" d="M 40 20 C 40 31.046875 31.046875 40 20 40 C 8.953125 40 0 31.046875 0 20 C 0 8.953125 8.953125 0 20 0 C 31.046875 0 40 8.953125 40 20 Z M 40 20 "/>
<path style=" stroke:none;fill-rule:nonzero;fill:rgb(62.745098%,29.803922%,85.098039%);fill-opacity:1;" d="M 40 20 C 40 19.816406 39.996094 19.632812 39.992188 19.453125 L 26.992188 6.453125 L 8.429688 25.015625 L 11.851562 28.4375 L 10.921875 28.789062 L 22.03125 39.898438 C 32.121094 38.878906 40 30.359375 40 20 Z M 40 20 "/>
<path style=" stroke:none;fill-rule:nonzero;fill:rgb(86.666667%,86.666667%,88.235294%);fill-opacity:1;" d="M 8.429688 6.453125 L 17.710938 6.453125 L 17.710938 25.015625 L 8.429688 25.015625 Z M 8.429688 6.453125 "/>
<path style=" stroke:none;fill-rule:nonzero;fill:rgb(72.156863%,72.156863%,74.509804%);fill-opacity:1;" d="M 17.710938 6.453125 L 26.992188 6.453125 L 26.992188 25.015625 L 17.710938 25.015625 Z M 17.710938 6.453125 "/>
<path style=" stroke:none;fill-rule:nonzero;fill:rgb(73.72549%,98.823529%,100%);fill-opacity:1;" d="M 10.773438 8.796875 L 17.710938 8.796875 L 17.710938 22.671875 L 10.773438 22.671875 Z M 10.773438 8.796875 "/>
<path style=" stroke:none;fill-rule:nonzero;fill:rgb(49.411765%,84.313725%,96.078431%);fill-opacity:1;" d="M 17.710938 8.796875 L 24.648438 8.796875 L 24.648438 22.671875 L 17.710938 22.671875 Z M 17.710938 8.796875 "/>
<path style=" stroke:none;fill-rule:nonzero;fill:rgb(96.078431%,60%,77.647059%);fill-opacity:1;" d="M 17.710938 13.542969 C 17.417969 12.5625 16.507812 11.847656 15.429688 11.847656 C 14.113281 11.847656 13.042969 12.917969 13.042969 14.234375 C 13.042969 14.28125 13.046875 14.324219 13.046875 14.371094 L 13.042969 14.371094 C 13.042969 15.523438 13.59375 16.605469 14.519531 17.285156 L 17.710938 19.621094 Z M 17.710938 13.542969 "/>
<path style=" stroke:none;fill-rule:nonzero;fill:rgb(93.72549%,36.078431%,64.313725%);fill-opacity:1;" d="M 22.382812 14.234375 C 22.382812 12.917969 21.3125 11.847656 19.996094 11.847656 C 18.917969 11.847656 18.007812 12.5625 17.710938 13.542969 L 17.710938 19.621094 L 20.902344 17.285156 C 21.832031 16.605469 22.382812 15.523438 22.382812 14.371094 L 22.378906 14.371094 C 22.378906 14.324219 22.382812 14.28125 22.382812 14.234375 Z M 22.382812 14.234375 "/>
<path style=" stroke:none;fill-rule:nonzero;fill:rgb(100%,100%,100%);fill-opacity:1;" d="M 10.914062 28.785156 L 17.222656 11.335938 L 25.949219 14.492188 L 19.636719 31.941406 Z M 10.914062 28.785156 "/>
<path style=" stroke:none;fill-rule:nonzero;fill:rgb(89.019608%,91.764706%,93.333333%);fill-opacity:1;" d="M 19.632812 31.945312 L 25.945312 14.496094 L 34.671875 17.652344 L 28.359375 35.101562 Z M 19.632812 31.945312 "/>
<path style=" stroke:none;fill-rule:nonzero;fill:rgb(73.72549%,98.823529%,100%);fill-opacity:1;" d="M 13.914062 27.378906 L 18.628906 14.335938 L 25.152344 16.695312 L 20.433594 29.738281 Z M 13.914062 27.378906 "/>
<path style=" stroke:none;fill-rule:nonzero;fill:rgb(49.411765%,84.313725%,96.078431%);fill-opacity:1;" d="M 20.433594 29.742188 L 25.148438 16.699219 L 31.671875 19.058594 L 26.953125 32.101562 Z M 20.433594 29.742188 "/>
<path style=" stroke:none;fill-rule:nonzero;fill:rgb(96.078431%,60%,77.647059%);fill-opacity:1;" d="M 23.554688 21.160156 C 23.609375 20.136719 22.996094 19.15625 21.984375 18.789062 C 20.746094 18.339844 19.378906 18.980469 18.929688 20.21875 C 18.914062 20.261719 18.898438 20.304688 18.886719 20.351562 L 18.882812 20.347656 C 18.492188 21.429688 18.636719 22.636719 19.28125 23.59375 L 21.484375 26.878906 Z M 23.554688 21.160156 "/>
<path style=" stroke:none;fill-rule:nonzero;fill:rgb(93.72549%,36.078431%,64.313725%);fill-opacity:1;" d="M 27.707031 23.398438 C 28.15625 22.160156 27.515625 20.792969 26.277344 20.34375 C 25.265625 19.976562 24.164062 20.339844 23.554688 21.160156 L 21.484375 26.875 L 25.28125 25.765625 C 26.386719 25.441406 27.269531 24.609375 27.660156 23.527344 L 27.65625 23.527344 C 27.675781 23.484375 27.691406 23.441406 27.707031 23.398438 Z M 27.707031 23.398438 "/>
</g>
</svg>
